<svg width="105px" height="142px" viewBox="0 10 130 150" version="1.1" xmlns="http://www.w3.org/2000/svg" xmlns:xlink="http://www.w3.org/1999/xlink" style='overflow: visible; margin: 5px;'>
    <!-- Generator: Sketch 53.2 (72643) - https://sketchapp.com -->
    <title>LogoWhite</title>
    <desc>Created with Sketch.</desc>
    <defs>
        <filter id="shadow">
            <feDropShadow dx="0" dy="0" stdDeviation="3" flood-color="#18CAE6"/>
        </filter>
    </defs>
    <g id="Page-1" stroke="none" stroke-width="1" fill="none" fill-rule="evenodd">
        <g id="playing-and-assets" transform="translate(-905.000000, -347.000000)" fill="#212224" fill-rule="nonzero" >
            <g id="LogoWhite" transform="translate(905.000000, 347.000000)" style="filter:url(#shadow)">
                <path d="M77.483218,1.59590881 L77.483218,10.2265996 C71.445922,8.88183597 69.9079977,11.7425624 64.9681354,11.5868173 C58.1331014,11.3713208 55.5470464,11.5868173 49.4610473,11.5868173 C39.3767056,11.5868173 30.9532054,14.6937151 24.1902937,20.9076038 C17.4273821,27.1214926 14.045977,34.8176642 14.045977,43.9963496 C14.045977,50.5757613 16.0468084,56.5052655 20.0485313,61.7850403 C24.0502542,67.0648151 32.4137295,72.1414454 45.1392082,77.0150837 C57.8646869,81.8887219 67.1485446,85.9500262 72.99106,89.1991184 C78.8335754,92.4482106 83.7956373,97.1593235 87.8773946,103.332599 C91.959152,109.505874 94,117.506643 94,127.335147 C94,140.412743 89.2780379,151.459491 79.8339719,160.475721 C70.389906,169.491952 58.865117,174 45.2592593,174 C31.3332637,174 17.0073108,169.045209 2.28097063,159.135478 L2.28097063,143.661754 C18.5279654,155.764622 32.6138186,161.815965 44.5389527,161.815965 C54.4632254,161.815965 62.8467091,158.546615 69.6896552,152.007817 C76.5326013,145.469019 79.954023,137.447943 79.954023,127.944349 C79.954023,120.715119 77.8331417,114.196725 73.5913155,108.388973 C69.3494892,102.581221 60.7459141,97.1593796 47.7803321,92.1232867 C34.81475,87.0871939 25.5509005,83.0258896 19.9885057,79.939252 C14.426111,76.8526145 9.70414883,72.4460993 5.82247765,66.7195744 C1.94080648,60.9930494 0,53.6217821 0,44.6055513 C0,32.0965465 4.72196215,21.4356227 14.1660281,12.6224602 C23.610094,3.80929772 34.4946122,0 47.7803321,0 C60.8259486,0 63.4977107,0.551567482 77.483218,1.59590881 Z" id="S"></path>
                <polygon id="F" points="135 0 135 11.9324202 61.9179416 11.9324202 61.9179416 80.8133656 127.823366 80.8133656 127.823366 94.0206854 61.9179416 94.0206854 61.9179416 169.395223 49 174 49 0"></polygon>
            </g>
        </g>
    </g>
</svg>
